{"title":"ABCD Any Body Can Dance 2013 Hindi Best CamRip XviD Sample Inclu","uid":8120384,"size":726578838,"categoryP":"video","categoryS":"movies","magnet":"?xt=urn:btih:bb877f886650549e6a47e67821081d9f4bd63433&amp;dn=ABCD+Any+Body+Can+Dance+2013+Hindi+Best+CamRip+XviD+Sample+Inclu&amp;tr=udp%3A%2F%2Ftracker.openbittorrent.com%3A80&amp;tr=udp%3A%2F%2Fopen.demonii.com%3A1337&amp;tr=udp%3A%2F%2Ftracker.coppersurfer.tk%3A6969&amp;tr=udp%3A%2F%2Fexodus.desync.com%3A6969","seeders":3,"leechers":0,"uploader":"basicssom","files":2,"time":1360389492,"description":"ABCD Any Body Can Dance 2013 Hindi Movies Best CamRip XviD Sample Included ~ rDX\n\nScreen Shots :\n &lt;a href=&quot;\nhttp://myimghosting.serveftp.com/ABCD.html&quot; rel=&quot;nofollow&quot; target=&quot;_NEW&quot;&gt;\nhttp://myimghosting.serveftp.com/ABCD.html&lt;/a&gt;\n &lt;a href=&quot;\nhttp://myimghost.cwahi.net/ABCD.html&quot; rel=&quot;nofollow&quot; target=&quot;_NEW&quot;&gt;\nhttp://myimghost.cwahi.net/ABCD.html&lt;/a&gt;\n\n\nFormat                                   : AVI\nFormat/Info                              : Audio Video Interleave\nFile size                                : 683 MiB\nDuration                                 : 2h 10mn\nOverall bit rate                         : 731 Kbps\nWriting library                          : MPlayer\n\nVideo\nID                                       : 0\nFormat                                   : MPEG-4 Visual\nFormat profile                           : Advanced Simple@L5\nFormat settings, BVOP                    : 1\nFormat settings, QPel                    : No\nFormat settings, GMC                     : No warppoints\nFormat settings, Matrix                  : Custom\nCodec ID                                 : XVID\nCodec ID/Hint                            : XviD\nDuration                                 : 2h 10mn\nBit rate                                 : 646 Kbps\nWidth                                    : 608 pixels\nHeight                                   : 256 pixels\nDisplay aspect ratio                     : 2.40:1\nFrame rate                               : 25.000 fps\nColor space                              : YUV\nChroma subsampling                       : 4:2:0\nBit depth                                : 8 bits\nScan type                                : Progressive\nCompression mode                         : Lossy\nBits/(Pixel*Frame)                       : 0.166\nStream size                              : 604 MiB (88%)\nWriting library                          : XviD 1.2.1 (UTC 2008-12-04)\n\nAudio\nID                                       : 1\nFormat                                   : MPEG Audio\nFormat version                           : Version 1\nFormat profile                           : Layer 3\nMode                                     : Joint stereo\nMode extension                           : MS Stereo\nCodec ID                                 : 55\nCodec ID/Hint                            : MP3\nDuration                                 : 2h 10mn\nBit rate mode                            : Constant\nBit rate                                 : 80.0 Kbps\nChannel(s)                               : 2 channels\nSampling rate                            : 32.0 KHz\nCompression mode                         : Lossy\nStream size                              : 74.7 MiB (11%)\nAlignment                                : Aligned on interleaves\nInterleave, duration                     : 468 ms (11.70 video frames)\nInterleave, preload duration             : 936 ms","torrent":{"xt":"urn:btih:bb877f886650549e6a47e67821081d9f4bd63433","amp;dn":"ABCD+Any+Body+Can+Dance+2013+Hindi+Best+CamRip+XviD+Sample+Inclu","amp;tr":["udp%3A%2F%2Ftracker.openbittorrent.com%3A80","udp%3A%2F%2Fopen.demonii.com%3A1337","udp%3A%2F%2Ftracker.coppersurfer.tk%3A6969","udp%3A%2F%2Fexodus.desync.com%3A6969"],"infoHash":"bb877f886650549e6a47e67821081d9f4bd63433","infoHashBuffer":{"type":"Buffer","data":[187,135,127,136,102,80,84,158,106,71,230,120,33,8,29,159,75,214,52,51]},"announce":[],"urlList":[]}}